<?xml version="1.0" encoding="UTF-8" standalone="no"?>
<svg
        xmlns:xlink="http://www.w3.org/1999/xlink" xmlns="http://www.w3.org/2000/svg" id="svg499049"
        viewBox="0 0 1024 768"
        height="768px" width="1024px" version="1.1">
    <rect width="100%" height="100%" fill="none"/>


    <defs id="defs499053"/>
    <linearGradient spreadMethod="pad" y2="30%" x2="-10%" y1="120%" x1="30%"
                    id="3d_gradient2-logo-67c9406f-877d-4984-9963-327947e348e8">
        <stop id="stop499030" stop-opacity="1" stop-color="#ffffff" offset="0%"/>
        <stop id="stop499032" stop-opacity="1" stop-color="#000000" offset="100%"/>
    </linearGradient>
    <linearGradient gradientTransform="rotate(-30)" spreadMethod="pad" y2="30%" x2="-10%" y1="120%" x1="30%"
                    id="3d_gradient3-logo-67c9406f-877d-4984-9963-327947e348e8">
        <stop id="stop499035" stop-opacity="1" stop-color="#ffffff" offset="0%"/>
        <stop id="stop499037" stop-opacity="1" stop-color="#cccccc" offset="50%"/>
        <stop id="stop499039" stop-opacity="1" stop-color="#000000" offset="100%"/>
    </linearGradient>
    <g id="logo-group">
        <image xlink:href="" id="container" x="272" y="144" width="480" height="480" style="display: none;"
               transform="translate(0 0)"/>
        <g id="logo-center" transform="translate(158.57428125000007 0)">
            <image xlink:href="" id="icon_container" x="0" y="0" style="display: none;"/>
            <g id="slogan"
               style="font-style:normal;font-weight:700;font-size:32px;line-height:1;font-family:Montserrat;font-variant-ligatures:none;text-align:center;text-anchor:middle"
               transform="translate(0 0)">
                <path id="path499057"
                      style="font-style:normal;font-weight:700;font-size:32px;line-height:1;font-family:Montserrat;font-variant-ligatures:none;text-align:center;text-anchor:middle"
                      d="m 414.10075,-15.68 q -1.792,-1.056 -3.84,-1.728 -2.016,-0.672 -3.392,-0.672 -1.088,0 -1.728,0.416 -0.608,0.384 -0.608,1.152 0,0.736 0.544,1.248 0.544,0.48 1.344,0.8 0.8,0.288 2.368,0.768 2.336,0.672 3.84,1.344 1.536,0.672 2.624,2.08 1.088,1.376 1.088,3.616 0,2.24 -1.184,3.84 -1.184,1.568 -3.264,2.368 -2.048,0.8 -4.576,0.8 -2.784,0 -5.568,-0.96 -2.752,-0.992 -4.768,-2.688 l 2.272,-4.576 q 1.696,1.504 4,2.464 2.336,0.96 4.128,0.96 1.312,0 2.048,-0.48 0.768,-0.48 0.768,-1.408 0,-0.768 -0.576,-1.28 -0.544,-0.512 -1.408,-0.8 -0.832,-0.32 -2.368,-0.736 -2.304,-0.64 -3.808,-1.28 -1.504,-0.672 -2.592,-1.984 -1.056,-1.344 -1.056,-3.552 0,-2.08 1.088,-3.648 1.12,-1.568 3.136,-2.4 2.048,-0.864 4.736,-0.864 2.432,0 4.8,0.704 2.368,0.672 4.16,1.824 z"
                      stroke-width="0" stroke-linejoin="miter" stroke-miterlimit="2" fill="#e8e0cd" stroke="#e8e0cd"
                      transform="translate(-317.1485624999998 386.721) translate(501.0791249999999 32.84) scale(1.75) translate(-396.98075 22.88)"/>
                <path id="path499059"
                      style="font-style:normal;font-weight:700;font-size:32px;line-height:1;font-family:Montserrat;font-variant-ligatures:none;text-align:center;text-anchor:middle"
                      d="m 427.14025,-17.536 q 3.584,0 5.568,1.664 1.984,1.632 2.016,4.608 V 0 h -5.6 v -1.952 q -1.728,2.208 -5.216,2.208 -2.752,0 -4.352,-1.472 -1.568,-1.504 -1.568,-3.936 0,-2.464 1.696,-3.84 1.728,-1.376 4.928,-1.408 h 4.512 v -0.192 q 0,-1.248 -0.864,-1.92 -0.832,-0.672 -2.432,-0.672 -1.088,0 -2.464,0.352 -1.344,0.352 -2.72,1.024 l -1.568,-3.84 q 2.112,-0.96 4.032,-1.408 1.952,-0.48 4.032,-0.48 z m -1.472,13.92 q 1.28,0 2.24,-0.608 0.96,-0.64 1.216,-1.632 V -7.36 h -3.392 q -2.4,0 -2.4,1.792 0,0.896 0.608,1.44 0.64,0.512 1.728,0.512 z"
                      stroke-width="0" stroke-linejoin="miter" stroke-miterlimit="2" fill="#e8e0cd" stroke="#e8e0cd"
                      transform="translate(-317.1485624999998 386.721) translate(544.8422499999998 42.19199999999999) scale(1.75) translate(-417.98825 17.536)"/>
                <path id="path499061"
                      style="font-style:normal;font-weight:700;font-size:32px;line-height:1;font-family:Montserrat;font-variant-ligatures:none;text-align:center;text-anchor:middle"
                      d="m 455.15825,-17.312 v 15.776 q 0,2.4 -1.184,4.192 -1.184,1.824 -3.328,2.784 -2.112,0.992 -4.896,0.992 -2.176,0 -4.192,-0.608 -2.016,-0.608 -3.552,-1.632 l 1.984,-3.936 q 1.184,0.8 2.56,1.248 1.376,0.448 2.784,0.448 1.92,0 3.04,-0.896 1.12,-0.896 1.12,-2.432 v -1.856 q -1.728,2.272 -4.928,2.272 -2.144,0 -3.84,-1.024 -1.664,-1.056 -2.624,-2.944 -0.928,-1.92 -0.928,-4.384 0,-2.432 0.896,-4.288 0.928,-1.856 2.592,-2.88 1.664,-1.024 3.776,-1.024 1.6,0 2.88,0.608 1.312,0.576 2.176,1.696 v -2.112 z m -9.152,12.192 q 1.568,0 2.528,-1.12 0.96,-1.12 0.96,-2.912 0,-1.824 -0.96,-2.944 -0.96,-1.12 -2.528,-1.12 -1.568,0 -2.56,1.152 -0.96,1.12 -0.96,2.912 0,1.792 0.96,2.912 0.992,1.12 2.56,1.12 z"
                      stroke-width="0" stroke-linejoin="miter" stroke-miterlimit="2" fill="#e8e0cd" stroke="#e8e0cd"
                      transform="translate(-317.1485624999998 386.721) translate(585.4177499999998 42.248) scale(1.75) translate(-437.17425 17.504)"/>
                <path id="path499063"
                      style="font-style:normal;font-weight:700;font-size:32px;line-height:1;font-family:Montserrat;font-variant-ligatures:none;text-align:center;text-anchor:middle"
                      d="m 466.94825,-17.504 q 4.224,0 6.496,2.496 2.272,2.496 2.272,6.848 0,0.672 -0.032,1.024 h -12.032 q 0.416,1.472 1.44,2.272 1.024,0.768 2.496,0.768 1.12,0 2.144,-0.448 1.056,-0.448 1.92,-1.312 l 2.976,2.976 q -1.344,1.504 -3.264,2.304 -1.888,0.768 -4.288,0.768 -2.784,0 -4.864,-1.088 -2.08,-1.088 -3.2,-3.072 -1.088,-1.984 -1.088,-4.608 0,-2.656 1.12,-4.672 1.12,-2.048 3.168,-3.136 2.048,-1.12 4.736,-1.12 z m 3.232,7.328 q 0,-1.504 -0.896,-2.4 -0.864,-0.928 -2.304,-0.928 -1.344,0 -2.272,0.896 -0.896,0.896 -1.184,2.432 z"
                      stroke-width="0" stroke-linejoin="miter" stroke-miterlimit="2" fill="#e8e0cd" stroke="#e8e0cd"
                      transform="translate(-317.1485624999998 386.721) translate(628.7302499999998 42.248) scale(1.75) translate(-457.92425 17.504)"/>
                <path id="path499065"
                      style="font-style:normal;font-weight:700;font-size:32px;line-height:1;font-family:Montserrat;font-variant-ligatures:none;text-align:center;text-anchor:middle"
                      d="m 485.76975,-22.432 h 6.368 l 6.496,13.12 6.464,-13.12 h 6.368 V 0 h -5.184 l -0.032,-14.208 -5.728,11.968 h -3.776 l -5.76,-11.968 V 0 h -5.216 z"
                      stroke-width="0" stroke-linejoin="miter" stroke-miterlimit="2" fill="#e8e0cd" stroke="#e8e0cd"
                      transform="translate(-317.1485624999998 386.721) translate(684.4598749999999 33.623999999999995) scale(1.75) translate(-485.76975 22.432)"/>
                <path id="path499067"
                      style="font-style:normal;font-weight:700;font-size:32px;line-height:1;font-family:Montserrat;font-variant-ligatures:none;text-align:center;text-anchor:middle"
                      d="m 523.64025,-17.536 q 3.584,0 5.568,1.664 1.984,1.632 2.016,4.608 V 0 h -5.6 v -1.952 q -1.728,2.208 -5.216,2.208 -2.752,0 -4.352,-1.472 -1.568,-1.504 -1.568,-3.936 0,-2.464 1.696,-3.84 1.728,-1.376 4.928,-1.408 h 4.512 v -0.192 q 0,-1.248 -0.864,-1.92 -0.832,-0.672 -2.432,-0.672 -1.088,0 -2.464,0.352 -1.344,0.352 -2.72,1.024 l -1.568,-3.84 q 2.112,-0.96 4.032,-1.408 1.952,-0.48 4.032,-0.48 z m -1.472,13.92 q 1.28,0 2.24,-0.608 0.96,-0.64 1.216,-1.632 V -7.36 h -3.392 q -2.4,0 -2.4,1.792 0,0.896 0.608,1.44 0.64,0.512 1.728,0.512 z"
                      stroke-width="0" stroke-linejoin="miter" stroke-miterlimit="2" fill="#e8e0cd" stroke="#e8e0cd"
                      transform="translate(-317.1485624999998 386.721) translate(741.7172499999998 42.19199999999999) scale(1.75) translate(-514.48825 17.536)"/>
                <path id="path499069"
                      style="font-style:normal;font-weight:700;font-size:32px;line-height:1;font-family:Montserrat;font-variant-ligatures:none;text-align:center;text-anchor:middle"
                      d="m 546.50625,-17.536 q 2.848,0 4.544,1.792 1.728,1.792 1.728,4.832 V 0 h -5.664 v -9.28 q 0,-1.472 -0.8,-2.304 -0.8,-0.864 -2.144,-0.864 -1.408,0.032 -2.336,0.928 -0.896,0.896 -1.056,2.368 V 0 h -5.696 v -17.312 h 5.696 v 2.816 q 0.928,-1.504 2.368,-2.272 1.472,-0.768 3.36,-0.768 z"
                      stroke-width="0" stroke-linejoin="miter" stroke-miterlimit="2" fill="#e8e0cd" stroke="#e8e0cd"
                      transform="translate(-317.1485624999998 386.721) translate(784.7567499999999 42.19199999999999) scale(1.75) translate(-535.08225 17.536)"/>
                <path id="path499071"
                      style="font-style:normal;font-weight:700;font-size:32px;line-height:1;font-family:Montserrat;font-variant-ligatures:none;text-align:center;text-anchor:middle"
                      d="m 564.45275,-17.536 q 3.584,0 5.568,1.664 1.984,1.632 2.016,4.608 V 0 h -5.6 v -1.952 q -1.728,2.208 -5.216,2.208 -2.752,0 -4.352,-1.472 -1.568,-1.504 -1.568,-3.936 0,-2.464 1.696,-3.84 1.728,-1.376 4.928,-1.408 h 4.512 v -0.192 q 0,-1.248 -0.864,-1.92 -0.832,-0.672 -2.432,-0.672 -1.088,0 -2.464,0.352 -1.344,0.352 -2.72,1.024 l -1.568,-3.84 q 2.112,-0.96 4.032,-1.408 1.952,-0.48 4.032,-0.48 z m -1.472,13.92 q 1.28,0 2.24,-0.608 0.96,-0.64 1.216,-1.632 V -7.36 h -3.392 q -2.4,0 -2.4,1.792 0,0.896 0.608,1.44 0.64,0.512 1.728,0.512 z"
                      stroke-width="0" stroke-linejoin="miter" stroke-miterlimit="2" fill="#e8e0cd" stroke="#e8e0cd"
                      transform="translate(-317.1485624999998 386.721) translate(827.1391249999997 42.19199999999999) scale(1.75) translate(-555.30075 17.536)"/>
                <path id="path499073"
                      style="font-style:normal;font-weight:700;font-size:32px;line-height:1;font-family:Montserrat;font-variant-ligatures:none;text-align:center;text-anchor:middle"
                      d="m 592.47075,-17.312 v 15.776 q 0,2.4 -1.184,4.192 -1.184,1.824 -3.328,2.784 -2.112,0.992 -4.896,0.992 -2.176,0 -4.192,-0.608 -2.016,-0.608 -3.552,-1.632 l 1.984,-3.936 q 1.184,0.8 2.56,1.248 1.376,0.448 2.784,0.448 1.92,0 3.04,-0.896 1.12,-0.896 1.12,-2.432 v -1.856 q -1.728,2.272 -4.928,2.272 -2.144,0 -3.84,-1.024 -1.664,-1.056 -2.624,-2.944 -0.928,-1.92 -0.928,-4.384 0,-2.432 0.896,-4.288 0.928,-1.856 2.592,-2.88 1.664,-1.024 3.776,-1.024 1.6,0 2.88,0.608 1.312,0.576 2.176,1.696 v -2.112 z m -9.152,12.192 q 1.568,0 2.528,-1.12 0.96,-1.12 0.96,-2.912 0,-1.824 -0.96,-2.944 -0.96,-1.12 -2.528,-1.12 -1.568,0 -2.56,1.152 -0.96,1.12 -0.96,2.912 0,1.792 0.96,2.912 0.992,1.12 2.56,1.12 z"
                      stroke-width="0" stroke-linejoin="miter" stroke-miterlimit="2" fill="#e8e0cd" stroke="#e8e0cd"
                      transform="translate(-317.1485624999998 386.721) translate(867.7146249999998 42.248) scale(1.75) translate(-574.48675 17.504)"/>
                <path id="path499075"
                      style="font-style:normal;font-weight:700;font-size:32px;line-height:1;font-family:Montserrat;font-variant-ligatures:none;text-align:center;text-anchor:middle"
                      d="m 604.26075,-17.504 q 4.224,0 6.496,2.496 2.272,2.496 2.272,6.848 0,0.672 -0.032,1.024 h -12.032 q 0.416,1.472 1.44,2.272 1.024,0.768 2.496,0.768 1.12,0 2.144,-0.448 1.056,-0.448 1.92,-1.312 l 2.976,2.976 q -1.344,1.504 -3.264,2.304 -1.888,0.768 -4.288,0.768 -2.784,0 -4.864,-1.088 -2.08,-1.088 -3.2,-3.072 -1.088,-1.984 -1.088,-4.608 0,-2.656 1.12,-4.672 1.12,-2.048 3.168,-3.136 2.048,-1.12 4.736,-1.12 z m 3.232,7.328 q 0,-1.504 -0.896,-2.4 -0.864,-0.928 -2.304,-0.928 -1.344,0 -2.272,0.896 -0.896,0.896 -1.184,2.432 z"
                      stroke-width="0" stroke-linejoin="miter" stroke-miterlimit="2" fill="#e8e0cd" stroke="#e8e0cd"
                      transform="translate(-317.1485624999998 386.721) translate(911.0271249999997 42.248) scale(1.75) translate(-595.23675 17.504)"/>
                <path id="path499077"
                      style="font-style:normal;font-weight:700;font-size:32px;line-height:1;font-family:Montserrat;font-variant-ligatures:none;text-align:center;text-anchor:middle"
                      d="m 621.65325,-14.432 q 0.896,-1.504 2.304,-2.304 1.44,-0.8 3.264,-0.8 v 5.216 q -0.288,-0.032 -0.864,-0.032 -2.016,0 -3.264,0.96 -1.248,0.928 -1.44,2.56 V 0 h -5.696 v -17.312 h 5.696 z"
                      stroke-width="0" stroke-linejoin="miter" stroke-miterlimit="2" fill="#e8e0cd" stroke="#e8e0cd"
                      transform="translate(-317.1485624999998 386.721) translate(954.2879999999997 42.19199999999999) scale(1.75) translate(-615.95725 17.536)"/>
            </g>
            <g id="title"
               style="font-style:normal;font-weight:700;font-size:72px;line-height:1;font-family:'Brandmark1 Bold Color';font-variant-ligatures:normal;text-align:center;text-anchor:middle"
               transform="translate(0 0)">
                <g id="path499080" aria-label="S"
                   transform="translate(0 287.75100000000003) translate(50 9.392000000000003) scale(1.75) translate(-336.49156 54.144)">
                    <path class="c1"
                          d="M80.97266,119.83057l-1.51953-1.62793l7.43848-8.89941l1.92188,2.41211 c1.50488,1.88672,3.4707,3.43457,5.6748,4.47168c2.07324,0.979,4.3125,1.49023,6.47266,1.49023 c2.5498,0,4.72363-0.56152,6.12109-1.57666c1.25977-0.91455,1.87207-2.13867,1.87207-3.75146 c0-1.75732-0.54004-2.84424-1.91504-3.87402c-1.58496-1.18115-4.14844-2.146-7.12207-3.26904 c-0.25195-0.09375-0.51074-0.19434-0.77734-0.29541c-4.08301-1.51904-8.00684-3.08154-11.1543-5.5874 c-1.82861-1.45459-3.18213-3.06055-4.14014-4.90381c-1.06543-2.04492-1.60547-4.37061-1.60547-6.9126 c0-4.42822,1.91553-8.52539,5.38623-11.53564c3.37012-2.91602,7.89844-4.52148,12.75977-4.52148 c6.27832,0,12.40625,2.26074,17.71289,6.53076l1.91602,1.54834l-6.90625,8.98633l-2.01563-1.65625 c-3.5498-2.93066-7.45313-4.6084-10.70703-4.6084c-3.02441,0-6.56738,1.31055-6.625,5.00439 c-0.02148,1.64893,0.77051,2.54883,1.97266,3.3916c1.72168,1.20947,4.45703,2.25342,7.35254,3.3623l0.02832,0.00732 c0.4541,0.18018,0.90723,0.36035,1.36133,0.53271c4.09668,1.60596,7.9707,3.11816,10.9082,5.5376 c3.4707,2.86572,5.16309,6.63867,5.16309,11.54248c0,2.65723-0.56836,5.12695-1.69238,7.34424 c-1.05859,2.07422-2.57031,3.88184-4.51465,5.37207c-3.54199,2.70703-8.31641,4.20508-13.4502,4.20508 C93.2998,128.55029,86.229,125.45459,80.97266,119.83057z"
                          transform="translate(257.03843 -125.59373)" stroke-width="0" stroke-linejoin="miter"
                          stroke-miterlimit="2" fill="#e7e7e7" stroke="#e7e7e7"/>
                </g>
                <g id="path499082" aria-label="A"
                   transform="translate(0 287.75100000000003) translate(118.96728999999993 10.273999999999994) scale(1.75) translate(-375.90144 53.64)">
                    <polygon class="c1"
                             points="104.82788,71.91748 95.08569,71.91748 73.80786,128.08252 85.77515,128.08252 99.93921,89.14844 114.22534,128.08252 126.19214,128.08252 "
                             transform="translate(302.09358 -125.55748)" stroke-width="0" stroke-linejoin="miter"
                             stroke-miterlimit="2" fill="#e7e7e7" stroke="#e7e7e7"/>
                    <polygon class="c3" points="100.03819,128.08252 91.09854,114.24284 108.90146,114.24284 "
                             transform="translate(302.09358 -125.55748)" stroke-width="0" stroke-linejoin="miter"
                             stroke-miterlimit="2" fill="#2e2d29" stroke="#2e2d29"/>
                </g>
                <g id="path499084" aria-label="G"
                   transform="translate(0 287.75100000000003) translate(203.97004 9.517999999999994) scale(1.75) translate(-424.47444 54.072)">
                    <path class="c1"
                          d="M88.90356,126.25342c-3.39111-1.43262-6.43701-3.49219-9.05811-6.10547 c-2.60693-2.61426-4.65869-5.66016-6.09912-9.05859c-1.4834-3.51416-2.23926-7.24414-2.23926-11.08936 s0.75586-7.5752,2.23926-11.09619c1.43311-3.3916,3.49219-6.4375,6.10645-9.05811c2.61377-2.61426,5.65967-4.66602,9.05811-6.10645 c3.51465-1.4834,7.24414-2.23193,11.08887-2.23193c4.55859,0,9.10156,1.10156,13.12012,3.19678 c3.8877,2.02344,7.31543,4.96143,9.90039,8.51123l-9.12988,6.66797c-1.5625-2.146-3.63672-3.92432-5.98438-5.14111 c-2.45508-1.2749-5.11914-1.92285-7.91309-1.92285c-4.59375,0-8.90723,1.78564-12.15479,5.0332s-5.0332,7.56055-5.0332,12.15479 c0,4.59375,1.78564,8.90723,5.0332,12.1543c3.24756,3.24805,7.56104,5.0332,12.15479,5.0332s8.90723-1.78516,12.1543-5.0332 c1.86523-1.86523,3.24805-4.08252,4.08984-6.50195h-16.2373V94.35498h28.49316v5.65234c0,3.84521-0.75586,7.5752-2.23926,11.0957 c-1.43359,3.3916-3.49219,6.4375-6.10645,9.05859c-2.61328,2.62109-5.65918,4.66602-9.05859,6.10645 c-3.51367,1.46875-7.24316,2.22461-11.08887,2.22461C96.15503,128.49268,92.42554,127.73682,88.90356,126.25342z"
                          transform="translate(352.96737 -125.57932)" stroke-width="0" stroke-linejoin="miter"
                          stroke-miterlimit="2" fill="#e7e7e7" stroke="#e7e7e7"/>
                </g>
                <g id="path499086" aria-label="E"
                   transform="translate(0 287.75100000000003) translate(305.37049999999994 10.273999999999994) scale(1.75) translate(-482.41756 53.64)">
                    <path class="c1"
                          d="M81.8186,128.08252h36.36279v-10.51367H81.8186V128.08252z M81.8186,105.47217h36.36279v-10.729H81.8186 V105.47217z M81.8186,71.91748v10.729h36.36279v-10.729H81.8186z"
                          transform="translate(400.59896 -125.55748)" stroke-width="0" stroke-linejoin="miter"
                          stroke-miterlimit="2" fill="#e7e7e7" stroke="#e7e7e7"/>
                </g>
                <g id="path499088" aria-label="M"
                   transform="translate(0 287.75100000000003) translate(380.1829999999999 10.273999999999994) scale(1.75) translate(-525.16756 53.64)">
                    <path class="c1"
                          d="M116.38086,95.7229l-12.80273,22.0625H96.4209L83.69043,95.84546v32.23682H72.31348V71.91772h10.3252 l17.39746,30.60254l17.39648-30.60254h10.25391v56.16455h-11.30566V95.7229z"
                          transform="translate(452.85408 -125.55772)" stroke-width="0" stroke-linejoin="miter"
                          stroke-miterlimit="2" fill="#e7e7e7" stroke="#e7e7e7"/>
                </g>
                <g id="path499090" aria-label="A"
                   transform="translate(0 287.75100000000003) translate(480.4789999999998 10.273999999999994) scale(1.75) translate(-582.47956 53.64)">
                    <polygon class="c1"
                             points="104.82788,71.91748 95.08569,71.91748 73.80786,128.08252 85.77515,128.08252 99.93921,89.14844 114.22534,128.08252 126.19214,128.08252 "
                             transform="translate(508.6717 -125.55748)" stroke-width="0" stroke-linejoin="miter"
                             stroke-miterlimit="2" fill="#e7e7e7" stroke="#e7e7e7"/>
                    <polygon class="c3" points="100.03819,128.08252 91.09854,114.24284 108.90146,114.24284 "
                             transform="translate(508.6717 -125.55748)" stroke-width="0" stroke-linejoin="miter"
                             stroke-miterlimit="2" fill="#2e2d29" stroke="#2e2d29"/>
                </g>
                <g id="path499092" aria-label="N"
                   transform="translate(0 287.75100000000003) translate(575.5814374999999 10.273999999999994) scale(1.75) translate(-636.82381 53.64)">
                    <path class="c1"
                          d="M88.08252,93.00806v35.07422H76.77783V71.91772h10.01563l25.12305,35.39795V71.91772h11.30566v56.16455 h-10.23242L88.08252,93.00806z"
                          transform="translate(560.04598 -125.55772)" stroke-width="0" stroke-linejoin="miter"
                          stroke-miterlimit="2" fill="#e7e7e7" stroke="#e7e7e7"/>
                </g>
            </g>
            <image xlink:href="https://app.brandmark.io/nounpreview/1722389.png" id="icon" x="0" y="0"
                   style="display: none;"/>
        </g>
    </g>
</svg>